<svg width="9" height="15" viewBox="0 0 9 15" fill="none" xmlns="http://www.w3.org/2000/svg">
<path fill-rule="evenodd" clip-rule="evenodd" d="M1.33587 7.73823C1.25304 7.49912 1.28081 7.21387 1.39792 7.10117L6.48717 2.20404C6.60427 2.09137 6.76639 2.1939 6.84922 2.43301C6.93205 2.67212 6.90427 2.95739 6.78717 3.07007L1.69792 7.9672C1.58081 8.07989 1.4187 7.97734 1.33587 7.73823Z" fill="black"/>
<path fill-rule="evenodd" clip-rule="evenodd" d="M1.25658 7.34312C1.33941 7.10401 1.50288 7.00278 1.62168 7.11709L6.78412 12.0847C6.9029 12.1989 6.93205 12.4855 6.84922 12.7246C6.76639 12.9638 6.6029 13.065 6.48412 12.9507L1.32168 7.98312C1.20288 7.86881 1.17375 7.58223 1.25658 7.34312Z" fill="black"/>
</svg>
